PathFileType	4	(X/Y/Z)	c:/Users/goper/Files/vsCode/490R/osim_files/C12/C12_Slow_02.trc
DataRate	CameraRate	NumFrames	NumMarkers	Units                	OrigDataRate	OrigDataStartFrame	OrigNumFrames
120.00	120.00	5	36	mm	120.0	939	1502
                Frame#	Time	LPSIS			LASIS			LTH1			LTH2			LTH3			LTH4			LLFE			LMFE			LSH1			LSH2			LSH3			LSH4			LLMAL			LMMAL			LCAL			LMTP5			LTOE			LMTP1			RPSIS			RASIS			RTH1			RTH2			RTH3			RTH4			RLFE			RMFE			RSH1			RSH2			RSH3			RSH4			RLMAL			RMMAL			RCAL			RMTP1			RTOE			RMTP5		
		X1	Y1	Z1	X2	Y2	Z2	X3	Y3	Z3	X4	Y4	Z4	X5	Y5	Z5	X6	Y6	Z6	X7	Y7	Z7	X8	Y8	Z8	X9	Y9	Z9	X10	Y10	Z10	X11	Y11	Z11	X12	Y12	Z12	X13	Y13	Z13	X14	Y14	Z14	X15	Y15	Z15	X16	Y16	Z16	X17	Y17	Z17	X18	Y18	Z18	X19	Y19	Z19	X20	Y20	Z20	X21	Y21	Z21	X22	Y22	Z22	X23	Y23	Z23	X24	Y24	Z24	X25	Y25	Z25	X26	Y26	Z26	X27	Y27	Z27	X28	Y28	Z28	X29	Y29	Z29	X30	Y30	Z30	X31	Y31	Z31	X32	Y32	Z32	X33	Y33	Z33	X34	Y34	Z34	X35	Y35	Z35	X36	Y36	Z36

939	7.81667	-2691.20898	1058.28003	380.71124	-2869.75146	1013.08691	432.56119	-2846.75049	736.43005	503.78088	-2847.39429	688.84833	489.78009	0.00000	0.00000	0.00000	-2900.49048	705.84888	491.95526	-2954.93091	538.72534	457.48630	-2949.79492	525.33063	328.18497	-2936.45068	433.64761	477.24762	-2960.28149	393.18311	486.63541	-2992.77271	459.14731	474.46964	-3008.98657	414.98526	481.98520	-3130.27759	139.86168	460.80984	-3142.42529	153.49725	382.71503	0.00000	0.00000	0.00000	-3275.49243	152.46249	489.81631	-3301.42920	212.45320	425.62845	-3296.62744	170.62709	384.73694	-2686.02979	1065.09888	266.79764	-2863.60400	1023.20093	174.62799	-2694.04297	762.92212	132.46465	-2687.47559	718.87488	142.07446	-2755.00806	745.95312	131.75951	-2737.95801	702.15668	138.92516	-2642.26099	544.11664	181.49765	-2657.00244	541.27600	312.44516	-2557.44678	464.27606	164.39714	-2548.46094	422.01910	158.81776	-2616.91455	443.24664	171.34384	-2598.73657	405.28592	163.72792	-2487.10107	137.29425	211.93521	-2505.34912	146.31602	293.65775	-2408.23877	114.31080	250.91301	-2610.65210	51.76094	294.26575	-2656.73462	65.66495	262.37067	-2618.68848	44.43097	188.42528
940	7.82500	-2700.89526	1056.69775	382.30124	-2879.62549	1011.17822	433.71359	0.00000	0.00000	0.00000	-2860.08228	687.58246	491.05307	-2904.89111	748.79346	496.49139	-2914.88672	705.72711	494.39975	-2966.63208	537.70288	457.30273	-2960.62280	524.56030	328.10669	-2949.17480	432.20172	476.91400	-2972.22119	391.93958	485.69061	-3005.07520	457.98621	474.10489	-3020.88281	414.00742	481.22446	-3143.12671	139.33524	458.94485	-3155.10156	153.14763	380.74649	0.00000	0.00000	0.00000	-3288.21875	153.39543	488.10587	-3313.20605	213.76299	423.87128	-3309.02295	171.81224	382.99722	-2694.48633	1064.22131	269.76166	-2873.07520	1021.34595	175.73503	-2701.10376	762.29541	133.13823	-2696.20874	717.62134	144.01443	-2762.81299	744.86517	132.18294	-2745.87061	701.22125	139.38791	-2649.30298	543.73633	182.02986	-2663.25708	540.30035	312.36853	-2563.60620	464.69528	164.43556	-2553.83423	422.48721	158.83344	-2622.69653	442.71933	171.57375	-2603.93872	405.09216	163.60854	-2488.33398	138.75090	211.45840	-2506.58203	147.51097	293.31302	-2409.24341	116.45395	250.41785	-2611.29614	52.05470	294.36395	-2656.90967	65.60315	262.31906	-2618.87744	44.34502	188.32848
941	7.83333	-2711.10156	1055.12634	383.82507	-2889.66064	1009.43518	434.86533	0.00000	0.00000	0.00000	-2873.35791	686.56158	492.41812	-2917.94849	748.11346	497.50717	-2927.71704	704.84760	495.11337	-2979.09253	537.07916	456.85983	-2972.09668	524.14075	327.89587	-2961.44458	431.29343	476.35797	-2984.48633	390.98193	485.04617	-3016.88208	457.04431	473.24893	-3033.07104	413.13672	480.14850	-3153.02222	137.99998	456.76324	-3165.90210	151.80553	378.82999	0.00000	0.00000	0.00000	-3300.09204	152.41054	486.66977	-3323.89111	212.73933	422.12677	-3319.97046	170.82901	381.19537	-2705.63916	1062.25403	269.73587	-2882.66357	1019.59595	176.87292	-2710.31836	761.24335	133.78256	-2704.42188	716.68555	144.58101	-2771.12378	743.70233	132.70981	-2753.90918	700.22614	139.83340	-2656.73315	542.95325	182.34381	-2672.17871	539.00214	312.78705	-2569.95532	465.08829	164.66182	-2559.78613	423.10980	158.90860	-2629.46411	441.83307	171.04829	-2609.24683	404.71194	163.90982	-2490.23267	139.54443	211.75293	-2508.05957	148.85239	292.96201	-2410.40991	118.82594	250.00357	-2611.62305	52.16837	294.17242	-2657.06714	65.56048	262.25906	-2619.08569	44.21890	188.22893
942	7.84167	-2720.85010	1053.67053	385.16309	-2900.05078	1007.94141	436.06906	0.00000	0.00000	0.00000	-2887.02832	685.61749	493.65674	-2930.74561	747.44867	498.32346	-2940.76709	704.16077	495.78217	-2991.76929	536.69330	456.26642	-2984.55078	524.30664	327.54672	-2973.92358	430.66833	475.96194	-2997.81714	390.02234	484.80923	-3029.69824	456.06012	472.52026	-3045.47339	411.87549	479.30414	-3162.37036	135.55247	454.94617	-3175.27393	149.33192	376.89194	0.00000	0.00000	0.00000	-3308.17383	149.43680	484.54474	-3333.60840	209.60095	420.28821	-3329.38013	167.60603	379.46548	-2715.76855	1060.38159	270.89951	-2892.46802	1017.95166	178.02824	-2718.26709	760.30750	134.37691	-2712.99561	715.56378	145.11827	-2779.79639	742.42328	133.40323	-2762.60474	699.01428	140.36699	-2664.08887	541.79236	182.61935	-2678.79736	538.00702	312.86945	-2576.94409	465.41061	164.83690	-2566.08911	423.58633	158.96506	-2635.57056	441.52151	172.33685	-2615.13354	404.37894	164.16376	-2491.86108	141.17491	211.32831	-2509.67017	150.29518	292.59415	-2411.77637	121.38197	249.44655	-2612.00342	52.20613	294.03433	-2657.11401	65.47808	262.19565	-2619.34253	44.28119	187.94844
943	7.85000	-2730.98535	1052.35925	386.45490	-2910.50952	1006.57837	437.38089	0.00000	0.00000	0.00000	-2900.71411	684.81647	494.77673	-2943.84961	747.04657	499.11652	-2954.34937	703.92804	496.74918	-3004.82764	536.55408	455.52222	-2997.71704	524.77704	327.21555	-2985.68359	430.23343	475.27051	-3008.87476	389.44104	484.04221	-3042.53345	454.83514	471.78757	-3057.83521	410.48846	478.42639	-3170.15723	132.60158	453.15237	-3182.52051	146.21013	374.38525	0.00000	0.00000	0.00000	-3315.79102	145.26747	482.69931	-3342.51807	204.73529	418.31671	-3337.42578	162.52025	377.52957	-2724.34741	1060.01050	274.30093	-2902.35303	1016.38733	179.21886	-2728.08228	758.97473	135.12930	-2722.01880	714.37885	145.75908	-2788.85327	741.13904	134.27477	-2771.60815	697.73425	141.19186	-2672.55811	541.13885	183.33470	-2688.88745	536.35583	313.36084	-2584.25073	465.77820	165.02243	-2572.78809	424.10925	159.24626	-2642.49634	440.95819	172.73003	-2621.33447	404.12100	164.42601	-2493.58887	142.91237	210.90067	-2511.29468	151.82298	292.18732	-2413.29932	124.31381	248.99942	-2612.43018	52.24911	293.93118	-2657.28564	65.30921	262.16000	-2619.54785	44.17016	187.81836
